<svg xmlns="http://www.w3.org/2000/svg" viewBox="0 0 117.7 23.6"><defs><style>.cls-1{fill:#e8385a;}</style></defs><g id="Layer_2" data-name="Layer 2"><g id="logoipsum"><path class="cls-1" d="M37.8,19.2a2.2,2.2,0,0,1-1.6-.5,1.5,1.5,0,0,1-.7-1.3V8.1c0-.1.1-.2.3-.2h1.7c.2,0,.3.1.3.2v8.6c0,.4.2.6.5.6h.4c.2,0,.3.1.4.3v1.2c0,.1-.1.3-.2.3h0Z"/><path class="cls-1" d="M47.3,18.1a4.6,4.6,0,0,1-6,0,3.9,3.9,0,0,1,0-5.6,4.8,4.8,0,0,1,6,0,4,4,0,0,1,0,5.6Zm-4.4-1.3a1.9,1.9,0,0,0,2.8,0,2.1,2.1,0,0,0,0-2.9,1.9,1.9,0,0,0-2.8,0A2.1,2.1,0,0,0,42.9,16.8Z"/><path class="cls-1" d="M57.7,11.7c.2,0,.2.1.2.3v7.1a2.9,2.9,0,0,1-1.1,2.6,3.8,3.8,0,0,1-2.9,1,4.4,4.4,0,0,1-2.7-.7,3,3,0,0,1-1.3-2c0-.2,0-.3.3-.3h1.7l.3.2a1.1,1.1,0,0,0,.6.7,2,2,0,0,0,1.1.3,2.1,2.1,0,0,0,1.3-.5,1.8,1.8,0,0,0,.5-1.2v-.7a3.3,3.3,0,0,1-2.1.7,3.9,3.9,0,0,1-2.8-1.1,4,4,0,0,1,0-5.6,3.5,3.5,0,0,1,2.8-1,3.1,3.1,0,0,1,2.1.6h0c0-.2.1-.3.2-.3h1.8Zm-3.9,5.7a1.6,1.6,0,0,0,1.3-.6,2.4,2.4,0,0,0,0-3,1.6,1.6,0,0,0-1.3-.6,2,2,0,0,0-1.4.6,1.7,1.7,0,0,0-.5,1.5,1.7,1.7,0,0,0,.5,1.5A1.8,1.8,0,0,0,53.8,17.4Z"/><path class="cls-1" d="M66.6,18.1a4.6,4.6,0,0,1-6,0,4,4,0,0,1,0-5.6,4.8,4.8,0,0,1,6,0,4,4,0,0,1,0,5.6Zm-4.5-1.3a2,2,0,0,0,1.5.6,2,2,0,0,0,1.4-.6,2.3,2.3,0,0,0,0-2.9,2,2,0,0,0-1.4-.6,2,2,0,0,0-1.5.6A2.3,2.3,0,0,0,62.1,16.8Z"/><path class="cls-1" d="M71.3,10a1.4,1.4,0,0,1-1.9,0,1.2,1.2,0,0,1,0-1.7h0a1.7,1.7,0,0,1,1.9,0,1.2,1.2,0,0,1,.1,1.7Zm.2,9.2a2.2,2.2,0,0,1-1.6-.5,1.5,1.5,0,0,1-.7-1.3V12a.3.3,0,0,1,.3-.3h1.7a.3.3,0,0,1,.3.3v4.7c0,.4.2.6.5.6h.4c.2,0,.3.1.4.3v1.2c0,.1-.1.3-.2.3h0Z"/><path class="cls-1" d="M79.1,11.4A4.4,4.4,0,0,1,82,12.5a4.3,4.3,0,0,1,0,5.6,3.6,3.6,0,0,1-2.9,1.1,3.7,3.7,0,0,1-2.1-.6v3.6c0,.2-.1.2-.3.2H75c-.1.1-.2,0-.2-.1s-.1-.1,0-.1V14a.6.6,0,0,0-.5-.6h-.5a.3.3,0,0,1-.3-.3V12a.5.5,0,0,1,.2-.4l1.1-.2a2,2,0,0,1,1.8,1A3.9,3.9,0,0,1,79.1,11.4Zm-1.6,5.4a1.9,1.9,0,0,0,2.7.1h.1a1.7,1.7,0,0,0,.5-1.5,1.7,1.7,0,0,0-.5-1.5,1.9,1.9,0,0,0-2.7-.1.1.1,0,0,0-.1.1,2.5,2.5,0,0,0-.5,1.5A2.7,2.7,0,0,0,77.5,16.8Z"/><path class="cls-1" d="M87.8,19.2a5.8,5.8,0,0,1-2.6-.6A2.6,2.6,0,0,1,84,16.8a.3.3,0,0,1,.3-.3h1.5l.3.2c.2.6.8.8,1.7.8a1.4,1.4,0,0,0,.9-.1.5.5,0,0,0,.3-.5.6.6,0,0,0-.5-.6l-1.2-.2L86,15.8a1.9,1.9,0,0,1-1.2-.7,2.1,2.1,0,0,1,.3-3h.1a5,5,0,0,1,2.4-.6A4.8,4.8,0,0,1,90,12a2.1,2.1,0,0,1,1.1,1.6.3.3,0,0,1-.3.3H89.3l-.3-.2a.8.8,0,0,0-.5-.5,1.1,1.1,0,0,0-.8-.2,1.4,1.4,0,0,0-.9.1.5.5,0,0,0-.3.5.6.6,0,0,0,.5.6l1.2.3,1.4.2a2.6,2.6,0,0,1,1.1.7,1.9,1.9,0,0,1,.5,1.4,2,2,0,0,1-.9,1.7A4.5,4.5,0,0,1,87.8,19.2Z"/><path class="cls-1" d="M101.8,18.7c0,.2-.1.3-.2.3h0l-1.2.2a2,2,0,0,1-2-.9,3.8,3.8,0,0,1-4.9,0,3.6,3.6,0,0,1-.9-2.4V12a.3.3,0,0,1,.3-.3h1.7a.3.3,0,0,1,.3.3v3.6a1.7,1.7,0,0,0,.4,1.2,1.7,1.7,0,0,0,1.2.5,2.1,2.1,0,0,0,1.2-.5,1.5,1.5,0,0,0,.4-1.1V12a.3.3,0,0,1,.3-.3h1.7a.3.3,0,0,1,.3.3v4.7c0,.4.1.6.5.6h.4l.4.2h0Z"/><path class="cls-1" d="M117.7,18.7c0,.1-.1.3-.2.3h-.1l-1.1.2a2.6,2.6,0,0,1-1.7-.5,1.4,1.4,0,0,1-.6-1.3V15.1a2.1,2.1,0,0,0-.5-1.3,1.2,1.2,0,0,0-1.1-.4,1.3,1.3,0,0,0-1,.4A1.7,1.7,0,0,0,111,15v3.7c0,.2-.1.3-.2.3h-1.7a.3.3,0,0,1-.3-.3h0V15.1a2,2,0,0,0-.4-1.3,1.3,1.3,0,0,0-1-.4,1.5,1.5,0,0,0-1.1.4,1.4,1.4,0,0,0-.4,1.2v3.7a.3.3,0,0,1-.3.3H104a.3.3,0,0,1-.3-.3V14a.6.6,0,0,0-.5-.6h-.4c-.3,0-.4-.1-.4-.3V12a.5.5,0,0,1,.2-.4l1.1-.2a1.9,1.9,0,0,1,1.8,1,3.5,3.5,0,0,1,2.5-1,3,3,0,0,1,2.4,1.1,3.8,3.8,0,0,1,2.6-1.1,3.1,3.1,0,0,1,2.4,1,3.4,3.4,0,0,1,.9,2.4v1.9c0,.4.2.6.5.6h.4c.3,0,.4.1.4.3Z"/><path class="cls-1" d="M.4,10.4a13.7,13.7,0,0,1,26.6,0H25.8a10.6,10.6,0,0,0-5.7,1.7l-.3.2h-.1l-.3-.2A10.3,10.3,0,0,0,8,12.1l-.3.2H7.6l-.3-.2a10.6,10.6,0,0,0-5.7-1.7Zm23.2,6.3a3.5,3.5,0,0,1,2.2-.8h1.6V12.7H25.8A5.8,5.8,0,0,0,22,14a3.9,3.9,0,0,1-4.4,0,6.5,6.5,0,0,0-7.7,0,3.9,3.9,0,0,1-4.4,0,5.8,5.8,0,0,0-3.8-1.3H0v3.2H1.6a3.5,3.5,0,0,1,2.2.8,6.8,6.8,0,0,0,7.7,0,3.5,3.5,0,0,1,2.2-.8,3.7,3.7,0,0,1,2.2.8A6.8,6.8,0,0,0,23.6,16.7Zm0,5.7a3.4,3.4,0,0,1,2.2-.7h1.6V18.5H25.8A6.4,6.4,0,0,0,22,19.7a3.9,3.9,0,0,1-4.4,0,6.8,6.8,0,0,0-7.7,0,3.9,3.9,0,0,1-4.4,0,6.4,6.4,0,0,0-3.8-1.2H0v3.2H1.6a3.4,3.4,0,0,1,2.2.7,6.8,6.8,0,0,0,7.7,0,3.4,3.4,0,0,1,2.2-.7,3.6,3.6,0,0,1,2.2.7A6.8,6.8,0,0,0,23.6,22.4Z"/></g></g></svg>
